<?xml version="1.0" encoding="UTF-8"?>
<svg width="150px" height="150px" viewBox="0 0 150 150" version="1.1" xmlns="http://www.w3.org/2000/svg" xmlns:xlink="http://www.w3.org/1999/xlink">
    <!-- Generator: Sketch 51.1 (57501) - http://www.bohemiancoding.com/sketch -->
    <title>FB_LOGO_INVERTED</title>
    <desc>Created with Sketch.</desc>
    <defs>
        <path d="M0.136536215,5.52765824 C0.136536215,4.23263445 0.616416054,3.12036077 1.57619013,2.19080382 C2.53194841,1.26124687 3.68044744,0.79647537 5.02172167,0.79647537 C6.34693274,0.79647537 7.48338457,1.26521928 8.43111127,2.20272116 C9.38285377,3.14022304 9.85871787,4.26640014 9.85871787,5.58128626 C9.85871787,6.9041173 9.3808459,8.026322 8.42508762,8.94793401 C7.46531354,9.8735185 6.30677519,10.3363038 4.94943779,10.3363038 C3.74871625,10.3363038 2.67049251,9.92515978 1.71473423,9.1028594 C0.662596959,8.19316478 0.136536215,7.00144297 0.136536215,5.52765824 Z M1.5520955,5.54553424 C1.5520955,6.56248544 1.89744836,7.3986769 2.58816443,8.05413372 C3.27486471,8.70959055 4.06797155,9.03731404 4.96750876,9.03731404 C5.943346,9.03731404 6.76657083,8.70363194 7.43720794,8.03625772 C8.10784506,7.36093857 8.44315859,6.53865052 8.44315859,5.56936892 C8.44315859,4.58816992 8.11186079,3.76588187 7.44925526,3.10248012 C6.79066552,2.4351059 5.97547215,2.10142379 5.0036507,2.10142379 C4.03584504,2.10142379 3.21864381,2.4351059 2.55202249,3.10248012 C1.88540116,3.76190941 1.5520955,4.57625264 1.5520955,5.54553424 Z M13.2741311,5.36081552 L10.7140771,0.969276759 L12.3103461,0.969276759 L14.0873248,4.08566044 L15.9546583,0.969276759 L17.5629746,0.969276759 L14.8824474,5.36081552 L17.695495,10.1694611 L16.1233207,10.1694611 L14.0632301,6.64788794 L11.942903,10.1694611 L10.3526577,10.1694611 L13.2741311,5.36081552 Z M23.5926548,2.27422518 L20.3519276,2.27422518 L20.3519276,4.48489123 L23.4782053,4.48489123 L23.4782053,5.78983966 L20.3519276,5.78983966 L20.3519276,10.1694611 L18.9484156,10.1694611 L18.9484156,0.969276759 L23.5926548,0.969276759 L23.5926548,2.27422518 Z M24.7672678,5.52765824 C24.7672678,4.23263445 25.2471477,3.12036077 26.2069217,2.19080382 C27.16268,1.26124687 28.311179,0.79647537 29.6524533,0.79647537 C30.9776643,0.79647537 32.1141162,1.26521928 33.0618429,2.20272116 C34.0135854,3.14022304 34.4894495,4.26640014 34.4894495,5.58128626 C34.4894495,6.9041173 34.0115775,8.026322 33.0558192,8.94793401 C32.0960451,9.8735185 30.9375068,10.3363038 29.5801694,10.3363038 C28.3794479,10.3363038 27.3012241,9.92515978 26.3454658,9.1028594 C25.2933286,8.19316478 24.7672678,7.00144297 24.7672678,5.52765824 Z M26.1828271,5.54553424 C26.1828271,6.56248544 26.52818,7.3986769 27.218896,8.05413372 C27.9055963,8.70959055 28.6987032,9.03731404 29.5982404,9.03731404 C30.5740776,9.03731404 31.3973024,8.70363194 32.0679395,8.03625772 C32.7385767,7.36093857 33.0738902,6.53865052 33.0738902,5.56936892 C33.0738902,4.58816992 32.7425924,3.76588187 32.0799869,3.10248012 C31.4213971,2.4351059 30.6062037,2.10142379 29.6343823,2.10142379 C28.6665766,2.10142379 27.8493754,2.4351059 27.1827541,3.10248012 C26.5161328,3.76190941 26.1828271,4.57625264 26.1828271,5.54553424 Z M39.4047532,6.24865714 L42.284061,10.1694611 L40.5673189,10.1694611 L37.9108864,6.40358252 L37.6578928,6.40358252 L37.6578928,10.1694611 L36.2543808,10.1694611 L36.2543808,0.969276759 L37.8988391,0.969276759 C39.1276712,0.969276759 40.0151477,1.1976901 40.5612953,1.65452365 C41.1636639,2.16299924 41.4648438,2.83433586 41.4648438,3.66855363 C41.4648438,4.32003799 41.2761044,4.88014724 40.89862,5.34889818 C40.5211357,5.81764912 40.023185,6.11756577 39.4047532,6.24865714 Z M37.6578928,5.1939728 L38.1036434,5.1939728 C39.4328703,5.1939728 40.0974737,4.69146344 40.0974737,3.68642964 C40.0974737,2.74495529 39.450941,2.27422518 38.1578563,2.27422518 L37.6578928,2.27422518 L37.6578928,5.1939728 Z M43.6815494,10.1694611 L43.6815494,0.969276759 L45.6332141,0.969276759 C46.5688934,0.969276759 47.3077879,1.0606421 47.8499197,1.24337551 C48.4322094,1.42213647 48.960278,1.72602553 49.4341414,2.15505181 C50.3939154,3.02104931 50.8737953,4.15914363 50.8737953,5.56936892 C50.8737953,6.98356667 50.3738368,8.1276196 49.3739048,9.00156203 C48.8719309,9.43853325 48.3458702,9.74242231 47.7957068,9.91323833 C47.2816855,10.0840543 46.5528304,10.1694611 45.6091195,10.1694611 L43.6815494,10.1694611 Z M45.0850613,8.86451265 L45.7175453,8.86451265 C46.3480245,8.86451265 46.8720774,8.79896796 47.2897196,8.66787659 C47.7073619,8.52884029 48.0848406,8.30837176 48.4221671,8.00646438 C49.1128831,7.38278728 49.458236,6.57043025 49.458236,5.56936892 C49.458236,4.56036266 49.1168989,3.74204702 48.4342144,3.11439746 C47.8197983,2.55427981 46.914251,2.27422518 45.7175453,2.27422518 L45.0850613,2.27422518 L45.0850613,8.86451265 Z" id="path-1"></path>
        <path d="M54.0422385,4.56831259 L58.0539937,4.56831259 L58.0539937,0.969276759 L59.4575057,0.969276759 L59.4575057,10.1694611 L58.0539937,10.1694611 L58.0539937,5.87326102 L54.0422385,5.87326102 L54.0422385,10.1694611 L52.6387265,10.1694611 L52.6387265,0.969276759 L54.0422385,0.969276759 L54.0422385,4.56831259 Z M67.1497151,7.93496035 L63.1680781,7.93496035 L62.1320092,10.1694611 L60.6200714,10.1694611 L65.222145,0.391285905 L69.6615799,10.1694611 L68.1255475,10.1694611 L67.1497151,7.93496035 Z M66.5774677,6.63001193 L65.1980504,3.50171091 L63.7523728,6.63001193 L66.5774677,6.63001193 Z M77.2634345,1.46384625 L77.2634345,3.10843879 C76.4522446,2.4370921 75.6129569,2.10142379 74.745546,2.10142379 C73.7897877,2.10142379 72.9846337,2.44106451 72.3300597,3.12035612 C71.67147,3.79567527 71.3421801,4.62193572 71.3421801,5.59916226 C71.3421801,6.5644714 71.67147,7.37881463 72.3300597,8.04221639 C72.9886495,8.70561814 73.7958114,9.03731404 74.7515697,9.03731404 C75.245512,9.03731404 75.6651559,8.95786592 76.0105139,8.7989673 C76.2032719,8.71951799 76.4030545,8.61226303 76.6098677,8.4771992 C76.816681,8.34213537 77.0345344,8.17926672 77.2634345,7.98858837 L77.2634345,9.66297425 C76.4602762,10.1118629 75.6169727,10.3363038 74.7334987,10.3363038 C73.4042718,10.3363038 72.2698279,9.8774909 71.3301328,8.95985135 C70.3944534,8.03426687 69.9266208,6.91802078 69.9266208,5.6110796 C69.9266208,4.43920225 70.3181545,3.39445947 71.1012338,2.47681991 C72.0650237,1.35261215 73.3119081,0.790516701 74.8419245,0.790516701 C75.6772091,0.790516701 76.484371,1.01495764 77.2634345,1.46384625 Z M80.6969187,4.63981662 L84.3171363,0.969276759 L86.1904934,0.969276759 L81.9859812,5.13438611 L86.2145881,10.1694611 L84.3352072,10.1694611 L80.9860542,6.07585575 L80.6969187,6.36187184 L80.6969187,10.1694611 L79.2934067,10.1694611 L79.2934067,0.969276759 L80.6969187,0.969276759 L80.6969187,4.63981662 Z" id="path-2"></path>
    </defs>
    <g id="FB_LOGO_INVERTED" stroke="none" stroke-width="1" fill="none" fill-rule="evenodd">
        <g id="Group">
            <circle id="Path" fill-rule="nonzero" cx="75" cy="75" r="75"></circle>
            <path d="M75,150 C33.5786438,150 0,116.421356 0,75 C0,33.5786438 33.5786438,0 75,0 C116.421356,0 150,33.5786438 150,75 C150,116.421356 116.421356,150 75,150 Z M75.255102,145.918367 C114.281346,145.918367 145.918367,114.281346 145.918367,75.255102 C145.918367,36.2288582 114.281346,4.59183673 75.255102,4.59183673 C36.2288582,4.59183673 4.59183673,36.2288582 4.59183673,75.255102 C4.59183673,114.281346 36.2288582,145.918367 75.255102,145.918367 Z" id="Combined-Shape" fill="#FFFFFF" fill-rule="nonzero"></path>
            <g id="LOGO_FINAL-Copy" transform="translate(21.000000, 16.000000)" fill="#FFFFFF">
                <path d="M44.5828359,19.7741042 C45.8003505,17.6140842 47.3901194,16.6296722 49.3686146,16.3093893 C49.4886324,11.0364966 49.6831461,4.73453138 54.4450654,4.04475686 C54.5808419,1.55374385 54.8374349,0.308278594 55.2148439,0.3083611 C55.5938288,0.30220045 55.8498451,1.53667146 55.9828932,4.01177412 C60.9722932,4.46920459 61.3623409,10.2631091 61.1956318,16.4022146 C61.3310479,16.3485679 61.4764011,16.3047069 61.6321323,16.2711377 C63.7802416,16.5520426 65.4846629,17.5640926 66.7654263,19.9292626 C77.0692481,24.4291171 83.3890863,34.9054412 83.7022214,45.3385163 C76.538588,37.0549738 64.2965102,35.0672613 55.4680886,35.083151 C46.6396667,35.0990408 34.918635,36.7143366 27.2339552,45.3385163 C27.2501013,34.7330097 33.9003208,24.1725379 44.5828334,19.7741067 L44.5828359,19.7741042 Z M55.2570093,25.9321257 C56.2506059,25.9321257 57.0560748,25.0215212 57.0560748,23.8982335 C57.0560748,22.7749459 56.2506059,21.8643413 55.2570093,21.8643413 C54.2634128,21.8643413 53.4579439,22.7749459 53.4579439,23.8982335 C53.4579439,25.0215212 54.2634128,25.9321257 55.2570093,25.9321257 Z" id="UPPER-ROOF" fill-rule="nonzero"></path>
                <g id="OXFORDHACK" transform="translate(12.850467, 74.237066)">
                    <g id="OXFORD">
                        <use xlink:href="#path-1"></use>
                        <use xlink:href="#path-1"></use>
                    </g>
                    <g id="HACK">
                        <use xlink:href="#path-2"></use>
                        <use xlink:href="#path-2"></use>
                    </g>
                </g>
                <path d="M-2.84217094e-14,69.7519303 C2.16501875,57.5868355 27.6480067,49.8303593 55.2960136,49.8303593 C82.9440201,49.8303593 107.420746,58.7697813 109.927372,68.5814518 C109.773373,70.9149277 110.533337,70.4725699 109.15236,73.3985165 C107.072116,65.4530281 91.2362776,54.8823172 55.2960136,54.8503998 C19.3557492,54.818482 2.65560919,65.4196143 1.37997372,74.7455389 C-0.0406317235,71.9871601 0.704283209,73.1501574 -2.84217094e-14,69.7519303 Z" id="LOWER-ROOF" fill-rule="nonzero"></path>
            </g>
            <path d="M58.0651122,124.858307 L63.1245051,124.858307 L63.1245051,126.780564 L54,126.780564 L58.7162341,121.084013 C59.1796474,120.516403 59.5682636,120.024871 59.8820941,119.609404 C60.1959247,119.193937 60.4349603,118.845769 60.5992081,118.56489 C60.9335696,118.014835 61.1007479,117.520378 61.1007479,117.081505 C61.1007479,116.449527 60.8778436,115.91996 60.4320282,115.49279 C59.9862128,115.06562 59.4348178,114.852038 58.7778267,114.852038 C57.4051845,114.852038 56.6191534,115.662479 56.4197096,117.283386 L54.3783546,117.283386 C54.7068502,114.427781 56.1527955,113 58.7162341,113 C59.9539584,113 60.9922234,113.392055 61.8310603,114.176176 C62.6757631,114.960297 63.0981082,115.931656 63.0981082,117.090282 C63.0981082,117.82759 62.9016004,118.550258 62.508579,119.258307 C62.3091352,119.626961 62.0173065,120.064365 61.633084,120.570533 C61.2488615,121.076701 60.763458,121.675023 60.1768588,122.365517 L58.0651122,124.858307 Z M65.4386274,119.916614 C65.4386274,117.757356 65.9430951,116.034071 66.9520458,114.746708 C67.8554085,113.58223 68.9493996,113 70.2340519,113 C71.5187042,113 72.6126953,113.58223 73.5160581,114.746708 C74.5250087,116.034071 75.0294765,117.786614 75.0294765,120.004389 C75.0294765,122.216312 74.5250087,123.965929 73.5160581,125.253292 C72.6126953,126.41777 71.5216371,127 70.2428509,127 C68.9640646,127 67.8671405,126.41777 66.9520458,125.253292 C65.9430951,123.965929 65.4386274,122.187054 65.4386274,119.916614 Z M67.4535856,119.925392 C67.4535856,121.429266 67.7146183,122.678574 68.2366916,123.673354 C68.7587649,124.65058 69.424545,125.139185 70.2340519,125.139185 C71.0376928,125.139185 71.7034729,124.65058 72.2314122,123.673354 C72.7593515,122.701981 73.0233172,121.476078 73.0233172,119.995611 C73.0233172,118.515144 72.7593515,117.286316 72.2314122,116.309091 C71.7034729,115.337717 71.0376928,114.852038 70.2340519,114.852038 C69.436277,114.852038 68.7734298,115.337717 68.2454905,116.309091 C67.7175513,117.274613 67.4535856,118.480035 67.4535856,119.925392 Z M79.2881654,115.141693 L76.9388473,115.141693 L78.0651122,113.228213 L81.3383194,113.228213 L81.3383194,126.780564 L79.2881654,126.780564 L79.2881654,115.141693 Z M87.3040035,119.732288 C86.3067849,119.030091 85.808183,118.07336 85.808183,116.862069 C85.808183,115.761959 86.1865338,114.843264 86.9432468,114.105956 C87.7058258,113.368648 88.6531693,113 89.7853058,113 C90.9115762,113 91.8501209,113.368648 92.6009679,114.105956 C93.3518149,114.837412 93.7272327,115.759033 93.7272327,116.870846 C93.7272327,118.035325 93.2315638,118.986203 92.2402112,119.723511 C92.7857484,120.016093 93.2139594,120.443257 93.524857,121.005016 C93.8416206,121.566774 94,122.198743 94,122.90094 C94,124.100528 93.6069844,125.083591 92.8209415,125.850157 C92.0348985,126.616723 91.028896,127 89.8029037,127 C88.5475813,127 87.5122493,126.613797 86.6968764,125.841379 C85.8756375,125.068962 85.4650242,124.097603 85.4650242,122.927273 C85.4650242,121.405844 86.0780112,120.34086 87.3040035,119.732288 Z M87.7351518,116.853292 C87.7351518,117.432605 87.9316596,117.918284 88.324681,118.310345 C88.7235685,118.708257 89.2045726,118.90721 89.7677079,118.90721 C90.3249771,118.90721 90.8030483,118.708257 91.2019358,118.310345 C91.6008232,117.912433 91.800264,117.43553 91.800264,116.879624 C91.800264,116.323717 91.6008232,115.846815 91.2019358,115.448903 C90.8030483,115.050991 90.3249771,114.852038 89.7677079,114.852038 C89.2104386,114.852038 88.7323674,115.050991 88.33348,115.448903 C87.9345925,115.846815 87.7351518,116.31494 87.7351518,116.853292 Z M87.4799824,122.857053 C87.4799824,123.48318 87.6970209,124.021523 88.1311043,124.4721 C88.5710537,124.916826 89.1048509,125.139185 89.7325121,125.139185 C90.3543073,125.139185 90.8851716,124.919751 91.325121,124.480878 C91.7650704,124.036152 91.9850418,123.50366 91.9850418,122.883386 C91.9850418,122.257259 91.7650704,121.724767 91.325121,121.285893 C90.8851716,120.84702 90.3543073,120.627586 89.7325121,120.627586 C89.1165829,120.627586 88.5857186,120.84702 88.1399032,121.285893 C87.6999538,121.724767 87.4799824,122.248482 87.4799824,122.857053 Z" id="2018" fill="#FFFFFF"></path>
        </g>
    </g>
</svg>